#!OML:ASF F:\VICON\USERDATA\INSTALL\rory3\rory3.ASF
:FULLY-SPECIFIED
:DEGREES
88
root 0.19825064661180491 17.782078359007293 43.085799728053274 -3.5284611012761857 -2.0523887969108534 -5.970139796555387
lfemur -20.115858970358 2.7260932955829906 -12.954603620057842
ltibia 52.59746591484089
lfoot -5.003403415819234 -3.6904011175681863
ltoes -8.196629272158907
rfemur -7.248941536296297 3.925077992069437 31.961971174343
rtibia 42.59826065304327
rfoot -7.02755241296257 -7.193693939257756
rtoes 3.384813522037387
lowerback 10.57709487096745 0.4708948227003551 2.752052163762821
upperback 0.16900991632599188 1.5325975475658034 2.3692289660105463
thorax -5.823113667316263 0.5519434695848674 0.8175303178865133
lowerneck -16.508818397137073 -3.4012888063957396 -1.9318189412151476
upperneck 20.586330746934355 -4.2230270525665725 2.4563577372263072
head 9.285553815207155 -2.1145329214793733 0.43554541561944116
lclavicle 3.0076445321093764e-16 5.650158596774296e-17
lhumerus -29.90583600020719 1.8175838037537027 82.95236893488972
lradius 24.06745550258549
lwrist 6.818223424845818
lhand -29.12905774177973 19.985523163090313
lfingers 7.125020000000001
lthumb -2.2576106825798714 50.73509130629447
rclavicle 2.993985447163357e-16 5.552075401260987e-17
rhumerus -30.705407673520433 -20.839605915812072 -77.01894549066284
rradius 28.150497305992488
rwrist 3.448258547144352
rhand -18.034413644087945 23.270609444769857
rfingers 7.125020000000001
rthumb 8.045745450957213 -6.852896277783537
89
root 0.22176696240599225 17.768748642917036 43.9814236586305 -3.1317031165324334 -2.483104959972944 -6.111113519282362
lfemur -23.38709029519626 3.0443052380467366 -12.377484983791497
ltibia 50.544126901673316
lfoot -4.907441277066221 -3.552814385111355
ltoes -7.161772106142004
rfemur -5.587468607415124 3.9411955334442803 32.31111033242125
rtibia 44.023060132263254
rfoot -7.197380404149839 -7.076647471172806
rtoes 3.2589668049776774
lowerback 10.600012964364772 0.6666002196925573 3.1590716273629704
upperback 0.12403785353355304 1.8638992492214486 2.3272113427704757
thorax -5.862691165398271 0.650106455536582 0.4585497731035709
lowerneck -16.48658554960038 -3.4122570548847024 -1.969245366374104
upperneck 20.577673232387646 -4.215839483556787 2.446293604529268
head 9.27809333437946 -2.1282424385899144 0.43419952583571125
lclavicle 3.0076445321093783e-16 5.65015859677431e-17
lhumerus -31.081995112318346 2.7366144590693935 82.76773600889386
lradius 23.846246817058677
lwrist 6.850650528321654
lhand -29.03678823018147 20.339086521125463
lfingers 7.125020000000001
lthumb -2.263556858963542 50.77821564304424
rclavicle 2.993985447163356e-16 5.55207540126098e-17
rhumerus -29.029836378710286 -18.61962041652122 -78.19212321593692
rradius 28.370172111723026
rwrist 3.1297058497962142
rhand -18.018243103774246 23.295854210629624
rfingers 7.125020000000001
rthumb 8.076460455115537 -6.794852522194971
90
root 0.23312653117737225 17.745844460126186 43.78473175546231 -2.778918529696589 -3.003824216925737 -6.363568585029506
lfemur -25.9199141365514 2.6205576068659564 -11.927445325059956
ltibia 46.87679109312235
lfoot -5.704732834525237 -3.7214811730082418
ltoes -6.485819235018973
rfemur -4.101155486590251 3.901634111929546 32.54225164783636
rtibia 44.387966931094944
rfoot -7.610449992302654 -7.139340759298676
rtoes 2.6889266375145766
lowerback 10.589064583546604 0.8407966459659383 3.503375512494838
upperback 0.08722586802374949 2.2368383542491292 2.3092603928621642
thorax -5.8812435789620165 0.7672579817864958 0.20305871474021253
lowerneck -16.484498410899615 -3.424017271059173 -2.0267737370118493
upperneck 20.57905831880841 -4.208857351140681 2.4408456402877263
head 9.247133694060214 -2.1612915123489134 0.41089606428853087
lclavicle 3.0076445321093793e-16 5.650158596774314e-17
lhumerus -32.024187193862204 4.01983066582663 82.51165938614355
lradius 23.70827790516598
lwrist 6.942439409410638
lhand -29.216744614361378 19.775188059316186
lfingers 7.125020000000001
lthumb -2.329190333725493 50.608368374762726
rclavicle 2.993985447163356e-16 5.552075401260976e-17
rhumerus -27.47162929951816 -16.671794293854752 -79.11166232159162
rradius 28.493650865935347
rwrist 2.767572658261068
rhand -18.01200967092129 23.307916363576588
rfingers 7.125020000000001
rthumb 8.07732021875038 -6.798649650856517
91
root 0.25867521522754827 17.727601352155876 44.65653011003219 -2.4145875859222943 -3.3393683572586212 -6.372497428339901
lfemur -27.291717066623065 1.3144754649658363 -11.249949462232653
ltibia 42.02520538243095
lfoot -5.986093637753587 -3.4585223633513067
ltoes -7.35919285481658
rfemur -2.291411509167924 3.9427111614592487 32.761569611893194
rtibia 43.625599165569646
rfoot -7.853320509920093 -7.2182418218456315
rtoes 2.4712166489696736
lowerback 10.586523629302327 1.0472032910858786 3.9088609760008124
upperback 0.04462074527662624 2.544612985661937 2.2793028207648516
thorax -5.91203875988789 0.8311204608835129 -0.18455905324565336
lowerneck -16.469448820235137 -3.4207627755616947 -2.0685946767328427
upperneck 20.557904393812816 -4.225219691496129 2.4005979554827324
head 9.246076073305316 -2.1761863281932903 0.4122507014342206
lclavicle 3.007644532109381e-16 5.650158596774325e-17
lhumerus -32.9728821638744 5.311417569282888 82.07581137664485
lradius 23.629256639680573
lwrist 6.968441090301002
lhand -29.144995601735715 20.09662866814474
lfingers 7.125020000000001
lthumb -2.365933360383944 50.54713921032941
rclavicle 2.993985447163356e-16 5.552075401260977e-17
rhumerus -26.009469759074754 -15.082057518063907 -79.78893285134073
rradius 28.591403485028568
rwrist 2.4261882470662366
rhand -17.995930382069034 23.335558039312897
rfingers 7.125020000000001
rthumb 8.1056114634024 -6.745391385466313
92
root 0.26334916058806596 17.69655682818258 43.90849652783941 -2.25693134786445 -3.766544461444239 -6.529478098586287
lfemur -27.78217016392875 -1.0703256744949603 -10.251996263369541
ltibia 37.0443119110718
lfoot -6.200228536167696 -3.249534323064754
ltoes -7.189641764032204
rfemur -1.0069223480104128 3.8670088834856617 32.66036819768987
rtibia 42.42270079615258
rfoot -7.845558519538256 -7.266982026319872
rtoes 2.3689531329751747
lowerback 10.535255553712783 1.1906942554229454 4.1048693232611155
upperback 0.007982245048003267 2.7912764463418984 2.247770825652459
thorax -5.906221756947976 0.9334273185746714 -0.333433725005593
lowerneck -16.449389756124145 -3.4110828484022915 -2.110284966842636
upperneck 20.551575367226118 -4.2484395168742894 2.3895882295687487
head 9.253387817164045 -2.182007077767415 0.41794490634203396
lclavicle 3.0076445321093813e-16 5.650158596774329e-17
lhumerus -33.62176751901436 6.913665856256091 81.57954674300487
lradius 23.48192764066156
lwrist 7.081271182631095
lhand -29.3052902596582 19.5731922908892
lfingers 7.125020000000001
lthumb -2.4624297281108616 50.28855926420771
rclavicle 2.993985447163356e-16 5.552075401260979e-17
rhumerus -24.76719720182315 -13.969829442603597 -80.28904964674881
rradius 28.651464710247605
rwrist 2.329735330080381
rhand -18.010995474468388 23.299265779684553
rfingers 7.125020000000001
rthumb 8.123983025523758 -6.6945531840226415
93
root 0.28752564802770086 17.67795727929328 44.6257865766565 -2.182180766272601 -3.883159666719406 -6.362196664339374
lfemur -26.400909834687596 -4.126384548629552 -8.529006242515075
ltibia 32.44324075325481
lfoot -5.802688406178013 -2.8632810175816488
ltoes -7.5704549610679175
rfemur -0.0305781220900041 3.7883418522138252 32.43393887553386
rtibia 41.33720651469073
rfoot -8.05265209311753 -7.381254513748888
rtoes 2.3045084252993333
lowerback 10.477961304472169 1.3209701447251472 4.2625045355712325
upperback -0.0401546256485714 2.8925706326347074 2.178953120412156
thorax -5.923043524896743 0.967819382176963 -0.6202636978697464
lowerneck -16.475935009680562 -3.4114391256592342 -2.177903534717561
upperneck 20.50231627391717 -4.314992510677534 2.3345719294445426
head 9.256074137109064 -2.185642540031907 0.4204646687024477
lclavicle 3.007644532109382e-16 5.650158596774334e-17
lhumerus -34.22011020991984 8.447387342415754 80.92208551136031
lradius 23.370000450028176
lwrist 7.147196631217355
lhand -29.214415503007707 19.923447159102167
lfingers 7.125020000000001
lthumb -2.4245082573134087 50.436682044524275
rclavicle 2.9939854471633564e-16 5.552075401260984e-17
rhumerus -23.70046346805785 -13.259914654184449 -80.61933459348997
rradius 28.645068362852843
rwrist 2.3603693771106635
rhand -17.996389339488484 23.307192831867837
rfingers 7.125020000000001
rthumb 8.11985923110522 -6.702490991950559
94
root 0.29266392871103863 17.656871421932486 43.810609953334094 -2.3783328938392523 -4.0139347424883285 -6.32608876228908
lfemur -24.938305706808418 -6.1295701661853705 -7.905837981718914
ltibia 29.669789850111837
lfoot -6.099262322114378 -3.4181704726554263
ltoes -8.75661439284274
rfemur -0.028430985496363803 3.5404974275166703 31.661449847468518
rtibia 40.603677841250644
rfoot -8.142444830475018 -7.434880343511277
rtoes 2.291242981160452
lowerback 10.398940843002169 1.383402922956426 4.196123161801034
upperback -0.06473602214138882 2.998417667271375 2.1232079710840375
thorax -5.9168719767493965 1.0261755068939138 -0.6526408999407225
lowerneck -16.48301422586123 -3.39403649087282 -2.218279943491124
upperneck 20.479496120859732 -4.371687812274869 2.3409257931740317
head 9.268582481604728 -2.1751217569282253 0.4395251668076282
lclavicle 3.0076445321093823e-16 5.650158596774335e-17
lhumerus -34.87455167536383 9.787813162636558 80.08643317673874
lradius 23.226997458625863
lwrist 7.348301873486811
lhand -29.31730583145712 19.541553558459306
lfingers 7.125020000000001
lthumb -2.430911810844945 50.39244969802171
rclavicle 2.993985447163357e-16 5.552075401260986e-17
rhumerus -22.84828542090246 -12.907070668743836 -80.79425243696937
rradius 28.621918363051464
rwrist 2.467141595739149
rhand -18.01840083381213 23.26337759869729
rfingers 7.125020000000001
rthumb 8.055705136225056 -6.830778876244239
